<svg width="500" viewBox="0 0 49 57" fill="none" xmlns="http://www.w3.org/2000/svg">
<path d="M4.67094 40.9368C2.13143 40.9383 0.0683743 38.8726 0.0680783 36.3335L0.0668948 22.2399C0.0660067 19.7033 2.12876 17.6366 4.66472 17.6376C5.26986 17.6352 5.86946 17.753 6.42873 17.9841C6.988 18.2152 7.49581 18.5551 7.9227 18.984C8.35172 19.4103 8.69192 19.9174 8.92363 20.4761C9.15534 21.0347 9.27396 21.6338 9.27261 22.2386L9.27143 36.3334C9.27459 36.9375 9.15739 37.5362 8.92666 38.0945C8.69593 38.6528 8.3563 39.1595 7.92759 39.5852C7.50146 40.0151 6.99409 40.356 6.43501 40.5881C5.87592 40.8202 5.27627 40.9386 4.67094 40.9368Z" fill="white"/>
<path d="M4.66739 18.8742C2.8089 18.8733 1.30269 20.384 1.30225 22.2394L1.30476 36.3326C1.30521 38.1958 2.81408 39.6995 4.67035 39.7014C6.53032 39.6992 8.03683 38.1949 8.03476 36.3329L8.03505 22.2377C8.03399 21.3453 7.67869 20.4897 7.04721 19.8591C6.41572 19.2284 5.55971 18.8742 4.66724 18.8744M40.7687 19.5721L39.5312 19.5717L7.97792 19.5761L7.97747 18.3387C7.97451 13.2588 10.7424 8.53381 15.2753 5.74223L13.513 2.5254C13.2972 2.14825 13.2433 1.67104 13.3687 1.23425C13.496 0.7976 13.797 0.422826 14.2005 0.208055C14.4338 0.0757282 14.7186 0.000831946 15.0072 0.00260814C15.6312 0.00275616 16.2036 0.343045 16.5047 0.890705L18.3493 4.25067C20.2582 3.55026 22.2717 3.19324 24.3552 3.19384C26.4671 3.19295 28.4922 3.54907 30.4093 4.25363L32.2509 0.887742C32.5474 0.340082 33.1235 -0.000353953 33.7468 0.00171827C34.0274 0.00142224 34.3072 0.069808 34.5542 0.203023C34.9687 0.430375 35.2573 0.792716 35.3831 1.23232C35.5096 1.66927 35.4589 2.13078 35.2369 2.53102L33.4755 5.74637C38.0015 8.54358 40.7659 13.265 40.7653 18.3362L40.7667 19.5739L40.7687 19.5721Z" fill="white"/>
<path d="M31.2796 12.8448C30.5789 12.8456 30.0072 12.2782 30.0085 11.5741C30.0085 10.8774 30.5781 10.3029 31.2802 10.3006C31.6168 10.3034 31.9386 10.4387 32.176 10.6773C32.4134 10.9158 32.5472 11.2383 32.5484 11.5748C32.5489 12.2764 31.9801 12.8448 31.2796 12.8448ZM17.4761 12.8473C17.1399 12.8462 16.8178 12.7119 16.5804 12.4738C16.3429 12.2358 16.2094 11.9134 16.2091 11.5772C16.2094 10.8789 16.7778 10.3049 17.4771 10.3049C17.8144 10.3054 18.1376 10.4396 18.3761 10.678C18.6146 10.9164 18.7489 11.2397 18.7495 11.5769C18.7498 12.2775 18.1801 12.8469 17.4761 12.8473ZM31.8067 6.21888L34.1558 1.92937C34.2157 1.8208 34.2301 1.69287 34.1957 1.57372C34.1613 1.45456 34.081 1.35392 33.9725 1.29394C33.7428 1.1702 33.4593 1.25471 33.3383 1.47999L30.9648 5.81243C28.9687 4.92655 26.7338 4.42758 24.3711 4.42995C22.0133 4.42803 19.7826 4.92433 17.7921 5.8065L15.4171 1.4834C15.2945 1.25546 15.0082 1.17212 14.785 1.29764C14.5566 1.41946 14.4732 1.70616 14.5997 1.92967L16.9499 6.21562C12.3324 8.5975 9.21311 13.132 9.21533 18.3381L39.529 18.3352C39.5299 13.1299 36.416 8.60489 31.8056 6.21784" fill="white"/>
<path d="M18.7462 57.0002C16.2092 56.9999 14.1429 54.9363 14.1439 52.3977L14.1427 46.1776L12.9339 46.1786C12.2994 46.1808 11.6708 46.0571 11.0845 45.8144C10.4982 45.5718 9.96596 45.2152 9.51858 44.7652C9.06816 44.3179 8.71124 43.7854 8.46861 43.1988C8.22598 42.6122 8.10248 41.9832 8.10532 41.3484L8.10059 18.2732L40.6641 18.2678L40.6674 41.3435C40.6678 44.0068 38.5012 46.1741 35.8384 46.1733L34.6212 46.1748L34.623 52.3927C34.6227 54.9296 32.5588 56.9955 30.0227 56.9954C28.7934 56.9983 27.6393 56.5217 26.7682 55.6489C26.3385 55.2233 25.9977 54.7165 25.7657 54.1579C25.5337 53.5994 25.4151 53.0003 25.4168 52.3955V46.1743H23.3486V52.394C23.3482 54.9319 21.2841 56.9973 18.746 56.9982" fill="white"/>
<path d="M9.344 41.3484C9.34223 43.3372 10.9475 44.9425 12.9344 44.9418L15.3797 44.942L15.3826 52.399C15.3822 54.2551 16.8905 55.7646 18.7455 55.7649C20.6052 55.7649 22.1117 54.2542 22.1099 52.3966L22.1102 44.9414L26.6537 44.9406L26.6534 52.3972C26.6549 54.2538 28.1653 55.7646 30.0199 55.7613C31.8793 55.7625 33.3868 54.2519 33.3865 52.394L33.3845 44.9394L35.8386 44.9387C37.8187 44.9394 39.4295 43.3302 39.4295 41.3458L39.4256 19.5045L9.33838 19.5098L9.34385 41.3484H9.344ZM44.094 40.931C41.5558 40.9313 39.491 38.8687 39.4918 36.3296L39.4884 22.236C39.4889 19.6972 41.5502 17.6324 44.0875 17.6322C46.6278 17.6319 48.6935 19.6963 48.693 22.2345L48.6945 36.3256C48.6951 38.8626 46.6322 40.9298 44.0942 40.9294" fill="white"/>
<path d="M44.09 18.8683C42.2317 18.8669 40.7256 20.376 40.7256 22.2347L40.7271 36.3277C40.728 38.1886 42.2334 39.6941 44.0934 39.6929C45.9517 39.6926 47.4563 38.1883 47.4578 36.3265L47.4541 22.2354C47.4538 20.3763 45.9488 18.8695 44.09 18.87" fill="white"/>
<path d="M47.4558 22.2345C47.4555 20.3759 45.949 18.8695 44.0905 18.8701C42.2321 18.8686 40.7258 20.3777 40.7261 22.2364L40.7284 36.3298C40.7283 38.1904 42.234 39.6942 44.0937 39.6946C44.5357 39.6946 44.9734 39.6076 45.3817 39.4384C45.79 39.2692 46.161 39.0212 46.4734 38.7085C46.7858 38.3959 47.0336 38.0248 47.2026 37.6164C47.3715 37.208 47.4584 36.7703 47.4581 36.3283L47.4556 22.2347L47.4558 22.2345ZM9.33909 19.5098L9.34428 41.3503C9.34279 43.337 10.9495 44.9405 12.9351 44.9409L15.3804 44.942L15.3833 52.399C15.3829 54.2551 16.8921 55.7649 18.7463 55.7649C20.6059 55.7649 22.1124 54.2542 22.1129 52.3968L22.1111 44.9412L26.6546 44.9403L26.6565 52.3969C26.6561 54.2525 28.1663 55.7643 30.0206 55.7613C31.8802 55.7625 33.3876 54.2519 33.3873 52.394L33.3852 44.9394L35.8389 44.9375C37.8196 44.9383 39.4309 43.3324 39.4312 41.3458L39.4275 19.505L9.33924 19.51L9.33909 19.5098ZM31.28 12.8447C30.5791 12.8454 30.007 12.2772 30.0088 11.574C30.0112 10.8775 30.5784 10.3028 31.2806 10.3004C31.6171 10.3032 31.939 10.4386 32.1764 10.6771C32.4138 10.9157 32.5476 11.2382 32.5488 11.5747C32.549 11.7414 32.5163 11.9066 32.4526 12.0607C32.3889 12.2147 32.2955 12.3548 32.1776 12.4727C32.0598 12.5907 31.9199 12.6842 31.7658 12.7481C31.6118 12.8119 31.4467 12.8447 31.28 12.8447ZM17.4763 12.8472C17.1401 12.846 16.8181 12.7117 16.5807 12.4736C16.3432 12.2356 16.2098 11.9133 16.2094 11.5771C16.2097 10.8787 16.7771 10.3046 17.4775 10.3047C17.8147 10.3053 18.138 10.4395 18.3764 10.6779C18.6149 10.9163 18.7492 11.2395 18.7498 11.5768C18.7501 12.2772 18.1802 12.8467 17.4763 12.8472ZM31.8069 6.21874L34.1559 1.92923C34.2811 1.70513 34.2003 1.41961 33.9716 1.29306C33.7427 1.17168 33.4595 1.25413 33.3384 1.47985L30.9657 5.81421C28.9675 4.92611 26.7351 4.4273 24.3712 4.42996C22.0133 4.42804 19.7803 4.92434 17.7921 5.80651L15.4171 1.48341C15.2933 1.25546 15.0093 1.17287 14.7851 1.2969C14.5564 1.41976 14.4742 1.70588 14.5996 1.92953L16.9496 6.21607C12.3323 8.59913 9.21283 13.132 9.21505 18.338L39.5288 18.335C39.5296 13.1298 36.4157 8.60475 31.8053 6.2177M4.66593 18.8731C2.80744 18.8722 1.30123 20.3828 1.30078 22.2384L1.3033 36.3314C1.30304 36.7735 1.38993 37.2113 1.55899 37.6199C1.72804 38.0284 1.97596 38.3995 2.28855 38.7122C2.60115 39.0248 2.9723 39.2728 3.38079 39.4419C3.78927 39.611 4.22708 39.6979 4.66919 39.6977C5.11125 39.6981 5.54905 39.6113 5.95751 39.4422C6.36598 39.2732 6.73708 39.0252 7.04958 38.7125C7.36208 38.3998 7.60983 38.0286 7.77866 37.62C7.94748 37.2115 8.03406 36.7736 8.03344 36.3316L8.03374 22.2364C8.033 20.38 6.52457 18.872 4.66593 18.8731Z" fill="#A4C439"/>
</svg>
