<svg width="500" viewBox="0 0 45 50" fill="none" xmlns="http://www.w3.org/2000/svg">
<path d="M44.0875 0L40.071 44.9948L22.0168 50L4.01223 45.0018L0 0H44.0875Z" fill="#264DE4"/>
<path d="M22.0437 46.1741L36.6324 42.1295L40.0648 3.67944H22.0437V46.1741Z" fill="#2965F1"/>
<path d="M22.0438 20.3701H9.198L9.69268 25.8893H22.0438V20.3701Z" fill="#EBEBEB"/>
<path d="M22.0439 9.19897H22.0248H8.2041L8.70583 14.7183H22.0439V9.19897Z" fill="#EBEBEB"/>
<path d="M9.93921 28.6492L10.7125 37.3152L22.0183 40.4538L22.0437 40.4468V34.7044L22.0195 34.7108L15.8727 33.0511L15.4797 28.6492H12.4928H9.93921Z" fill="#EBEBEB"/>
<path d="M28.8211 25.8894L28.1804 33.0475L22.0247 34.709V40.4511L33.3395 37.3152L33.4225 36.3827L34.7195 21.8522L34.8542 20.3702L35.8506 9.19897H22.0247V14.7183H29.8019L29.2997 20.3702H22.0247V25.8894H28.8211Z" fill="white"/>
</svg>
