<svg width="500" viewBox="0 0 36 55" fill="none" xmlns="http://www.w3.org/2000/svg">
<path d="M9 54.5456C13.968 54.5456 18 50.4729 18 45.4547V36.3638H9C4.03204 36.3638 0 40.4365 0 45.4547C0 50.4729 4.03204 54.5456 9 54.5456Z" fill="#0ACF83"/>
<path d="M0 27.2725C0 22.2544 4.03204 18.1816 9 18.1816H18V36.3635H9C4.03204 36.3635 0 32.2907 0 27.2725Z" fill="#A259FF"/>
<path d="M0 9.09091C0 4.07273 4.03204 0 9 0H18V18.1818H9C4.03204 18.1818 0 14.1091 0 9.09091Z" fill="#F24E1E"/>
<path d="M18.0005 0H27.0005C31.9684 0 36.0005 4.07273 36.0005 9.09091C36.0005 14.1091 31.9684 18.1818 27.0005 18.1818H18.0005V0Z" fill="#FF7262"/>
<path d="M36.0005 27.2725C36.0005 32.2907 31.9684 36.3635 27.0005 36.3635C22.0323 36.3635 18.0005 32.2907 18.0005 27.2725C18.0005 22.2544 22.0323 18.1816 27.0005 18.1816C31.9684 18.1816 36.0005 22.2544 36.0005 27.2725Z" fill="#1ABCFE"/>
</svg>
