<svg width="500" viewBox="0 0 42 58" fill="none" xmlns="http://www.w3.org/2000/svg">
<path d="M27.0266 20.5873L21.3212 25.8954L16.0273 15.2168L18.7669 9.07508C19.4794 7.82821 20.5909 7.84246 21.2856 9.07508L27.0266 20.5873Z" fill="#FFA000"/>
<path d="M16.0277 15.2168L21.3216 25.8954L0 45.7296L16.0277 15.2168Z" fill="#F57F17"/>
<path d="M33.2666 12.4736C34.2855 11.4939 35.34 11.8288 35.609 13.2164L41.1593 45.4659L22.7626 56.5096C22.1213 56.8659 20.4113 57.0191 20.4113 57.0191C20.4113 57.0191 18.8545 56.8338 18.2614 56.4847L0 45.7295L33.2666 12.4736Z" fill="#FFCA28"/>
<path d="M16.0274 15.2167L0.00146484 45.7296L7.13893 1.13597C7.40256 -0.253408 8.19343 -0.387002 8.89881 0.838498L16.0274 15.2167Z" fill="#FFA000"/>
</svg>
