<svg width="500" viewBox="0 0 57 56" fill="none" xmlns="http://www.w3.org/2000/svg">
<path fill-rule="evenodd" clip-rule="evenodd" d="M32.9797 0.0132286C32.5762 0.0132286 32.1992 0.0992146 31.8552 0.211658C32.5927 0.70773 32.9962 1.35263 33.2012 2.09012C33.2145 2.18933 33.2442 2.26209 33.2575 2.36461C33.2707 2.46714 33.2905 2.53659 33.2905 2.62919C33.3501 3.90244 32.9598 4.06118 32.682 4.81191C32.262 5.7809 32.3778 6.82265 32.8804 7.65606C32.9265 7.76763 32.9841 7.87404 33.0524 7.97354C32.5034 4.31583 35.5559 3.76354 36.1181 2.62257C36.1611 1.62381 35.3377 0.959074 34.6861 0.496073C34.0644 0.119057 33.4956 0 32.9797 0V0.0132286ZM37.5766 0.840017C37.5171 1.17073 37.5634 1.08475 37.5435 1.26002L37.5105 1.63704L37.4112 1.98429C37.3782 2.10004 37.3385 2.21579 37.2955 2.33154L37.1367 2.66226C37.0938 2.72179 37.064 2.77801 37.021 2.83423L36.935 2.96651L36.7167 3.25424C36.6308 3.34022 36.558 3.44274 36.4522 3.51881C36.3463 3.59487 36.2802 3.69078 36.1777 3.76354C35.8734 3.99504 35.5262 4.16701 35.2087 4.38528C35.1095 4.45804 35.0102 4.51757 34.921 4.60355C34.8231 4.67281 34.7312 4.75025 34.6465 4.83506C34.5472 4.92104 34.4745 5.00703 34.3819 5.10955C34.2893 5.21207 34.2231 5.29806 34.1636 5.39727L33.9652 5.70153L33.8064 6.03224L33.6907 6.36296L33.5915 6.72675C33.5782 6.78627 33.5783 6.85903 33.5584 6.91525C33.5386 6.97147 33.5452 7.031 33.5253 7.08723L33.5121 7.45101C33.5121 7.537 33.5121 7.62298 33.5253 7.71558C33.5253 7.83133 33.5386 7.94708 33.5683 8.07937C33.5981 8.21166 33.6113 8.31087 33.6411 8.42662L33.7568 8.77387C33.7899 8.84663 33.8296 8.91939 33.856 8.9723L30.5291 7.68251L28.8523 7.25258L27.9396 7.03431C27.069 6.8608 26.1905 6.73056 25.3071 6.64407C25.274 6.64407 25.2641 6.63084 25.2343 6.63084L22.6448 6.49855L20.7498 6.57131C19.8668 6.63084 18.9838 6.74328 18.1041 6.8888L17.4526 7.00455L16.1496 7.29227L15.498 7.46424L14.8763 7.73873L14.4001 7.95701C14.367 7.97023 14.3405 7.97023 14.3273 7.99008L13.9238 8.18851C13.8809 8.20174 13.8511 8.22158 13.8246 8.2315L13.3749 8.463C13.2756 8.50599 13.1764 8.56222 13.0871 8.60852C13.0441 8.64159 12.9879 8.66474 12.9548 8.68127L12.5778 8.89954C12.4581 8.96571 12.3421 9.03859 12.2306 9.11782L11.9429 9.31625L11.6254 9.54775L11.3806 9.74618C11.3476 9.7594 11.3211 9.78917 11.2947 9.8057L11.0764 9.99421C11.0632 10.0273 11.0334 10.0372 11.0169 10.0537L10.7523 10.2985L10.4646 10.573L10.2198 10.8375C10.1868 10.8706 10.1471 10.8971 10.1206 10.9235C10.0429 11.0142 9.96126 11.1013 9.87589 11.1848C9.86266 11.2179 9.8329 11.2278 9.81636 11.2575L9.48565 11.6048L8.70516 12.3555C8.44059 12.587 8.1694 12.8053 7.89491 12.9905L7.02843 13.5395C6.74071 13.6982 6.43315 13.8437 6.11566 13.9694C5.80833 14.1001 5.49489 14.216 5.17643 14.3167C4.56791 14.4489 3.94617 14.6937 3.41041 14.7367C3.29466 14.7367 3.16568 14.7697 3.04662 14.7797L2.68284 14.8656L2.33558 14.9979C2.21718 15.0448 2.10128 15.0978 1.98833 15.1567C1.88912 15.2294 1.77006 15.289 1.67085 15.3551C1.57163 15.4212 1.47242 15.5138 1.38312 15.5998C1.29383 15.6858 1.1847 15.7718 1.0954 15.8644L0.850673 16.1521C0.777916 16.2679 0.69193 16.3704 0.632401 16.4828C0.556711 16.5889 0.489268 16.7005 0.430665 16.8169L0.271921 17.1939L0.139635 17.5709L0.066878 17.9181C0.023885 18.0901 0.023885 18.2654 0.00734923 18.3481C-0.00918653 18.4308 0.00734923 18.5399 0.00734923 18.6424C0.00453976 18.7055 0.00897828 18.7688 0.0205778 18.8309C0.0338064 18.9301 0.0536494 19.0194 0.0801066 19.1054L0.179321 19.37C0.222314 19.4692 0.278536 19.5585 0.338064 19.6445L0.526572 19.9091L0.771301 20.1406C0.856076 20.2254 0.947905 20.3028 1.04579 20.3721C1.39305 20.6763 1.47572 20.7755 1.9288 21.007C2.00156 21.05 2.07432 21.0798 2.16031 21.1228C2.2033 21.1658 2.2033 21.179 2.21983 21.2088C2.23306 21.3245 2.26283 21.4403 2.29259 21.556C2.32021 21.6751 2.35896 21.7914 2.40834 21.9033L2.52409 22.1678C2.53732 22.2009 2.55716 22.2274 2.56708 22.2406L2.73906 22.5581L2.95733 22.8623L3.20206 23.1368C3.28804 23.2228 3.37403 23.2956 3.47655 23.3816L3.76427 23.5998C3.86349 23.6726 3.9627 23.7321 4.08176 23.7883C4.18875 23.85 4.30044 23.903 4.41578 23.9471C4.50177 23.9901 4.60429 24.0198 4.7035 24.0463C4.80272 24.0728 4.89201 24.1058 4.94823 24.1191C4.90524 24.8995 4.88871 25.6403 5.00776 25.8983C5.14005 26.186 5.77502 25.303 6.41 24.2943C6.32401 25.2931 6.26448 26.4638 6.41 26.8078C6.55551 27.1517 7.43521 26.0405 8.18924 24.797C18.4414 22.4258 27.8007 29.513 28.7829 39.5205C28.5944 37.9595 26.6729 37.0897 25.7899 37.3047C25.36 38.3762 24.6192 39.752 23.4319 40.6019C23.5311 39.6428 23.4881 38.6639 23.2864 37.7081C22.9629 39.0395 22.351 40.2836 21.4939 41.3526C20.1214 41.4518 18.749 40.7904 18.0214 39.7916C17.9619 39.7487 17.9486 39.6594 17.9057 39.6031L17.7899 39.2989C17.7469 39.1997 17.7171 39.1005 17.7039 38.9946C17.6907 38.8888 17.6907 38.7962 17.6907 38.6771V38.4589C17.7039 38.3596 17.7337 38.2604 17.7634 38.1546L17.8627 37.8503C17.9222 37.7511 17.9619 37.6519 18.0346 37.5461C18.2794 36.8847 18.2794 36.2894 17.8362 35.9587C17.7502 35.8991 17.6642 35.8594 17.5617 35.8131C17.5022 35.7999 17.4294 35.7702 17.3732 35.7536L17.2575 35.7106L16.9532 35.6379C16.8543 35.6093 16.7519 35.5948 16.6489 35.5949C16.5439 35.5778 16.4378 35.5678 16.3315 35.5651C16.2587 35.5651 16.1859 35.5783 16.1132 35.5783C16.0058 35.5774 15.8989 35.5919 15.7957 35.6213L15.4914 35.6776L15.1872 35.7768L14.8995 35.9091L14.625 36.0546C11.2517 38.2538 13.269 43.3964 15.5642 44.8913C14.6977 45.05 13.8114 45.2385 13.57 45.427C14.1653 45.8305 14.8135 46.1546 15.4947 46.4258L17.8362 47.0872C19.0367 47.3518 20.2504 47.4345 21.4807 47.3617C24.6057 47.1329 27.5591 45.8441 29.8521 43.7086C32.1451 41.5732 33.6405 38.7189 34.0909 35.618L34.1768 35.995L34.3091 36.8053L34.3687 37.1955L34.4017 37.6255L34.4348 38.1017V38.3332C34.4348 38.4059 34.448 38.4919 34.448 38.5647C34.448 38.6374 34.4348 38.7367 34.4348 38.8293V39.0277C34.4348 39.1269 34.4216 39.2162 34.4216 39.3154C34.4216 39.3716 34.4216 39.4312 34.4083 39.5039L34.3951 39.8214C34.3819 39.8644 34.3819 39.9074 34.3819 39.9537L34.3389 40.2844C34.3389 40.3274 34.3389 40.3704 34.3257 40.4167L34.2694 40.8367V40.8698L34.1835 41.2732L34.0975 41.7032L33.9817 42.153L33.866 42.6027L33.7205 43.0657L33.403 43.9057L33.231 44.3258L33.0326 44.7292C33.0193 44.7722 32.9995 44.802 32.9896 44.8284C32.0206 46.7664 30.6316 48.4332 28.8953 49.7296C28.7796 49.8024 28.6638 49.8884 28.5481 49.9744C28.515 50.0074 28.4753 50.0174 28.4489 50.0471L28.1314 50.2654L28.1744 50.3514H28.1876L28.7961 50.2654H28.8093L29.9338 50.067C30.033 50.0537 30.152 50.024 30.2513 49.9942L30.4497 49.9512L30.7539 49.895L31.0185 49.8222C32.4637 49.475 33.8627 48.9954 35.212 48.4332C32.9135 51.575 29.8312 54.1017 26.2298 55.7652C27.8933 55.6494 29.5568 55.3749 31.1574 54.9119C36.9846 53.1922 41.8891 49.2733 44.8259 43.9917C44.2304 47.3403 42.9023 50.5159 40.9367 53.2914C42.3389 52.3654 43.6254 51.2972 44.7994 50.0835C48.0364 46.7037 50.161 42.4139 50.8879 37.7908C51.384 40.0728 51.5229 42.4341 51.3079 44.7623C61.7486 30.1976 52.1744 15.0971 48.1661 11.122C48.1529 11.0889 48.133 11.079 48.133 11.0492C48.1 11.2212 48.09 11.3964 48.0768 11.5684C48.0338 11.8991 47.9908 12.2199 47.9313 12.5374C47.8718 12.8549 47.7725 13.1724 47.6866 13.4965C47.6006 13.8206 47.4683 14.1182 47.3393 14.4225C47.2103 14.7267 47.0648 15.0178 46.9094 15.3055C46.75 15.5884 46.5767 15.8632 46.3902 16.129C46.2016 16.4035 45.9999 16.6647 45.7949 16.9095C45.579 17.1612 45.3517 17.4029 45.1136 17.6337C44.9681 17.766 44.8391 17.8785 44.6936 17.9975L44.3629 18.2852C44.1046 18.4901 43.834 18.679 43.5526 18.8508C43.2765 19.0289 42.9917 19.1934 42.6994 19.3435C42.3951 19.489 42.0909 19.618 41.7866 19.747C41.4786 19.8635 41.1652 19.9651 40.8474 20.0513C40.5299 20.1372 40.1959 20.21 39.8784 20.2695C39.5609 20.3291 39.2169 20.3555 38.8961 20.3853C38.6646 20.3985 38.4331 20.4184 38.2347 20.4184C37.904 20.4184 37.5733 20.3853 37.2525 20.3588C36.9317 20.3324 36.5911 20.2861 36.267 20.2133C35.9388 20.1539 35.615 20.0722 35.298 19.9686H35.2847C35.6022 19.9355 35.9197 19.9091 36.2438 19.8528C36.5679 19.7966 36.8953 19.7205 37.2128 19.6346C37.5303 19.5486 37.8478 19.4461 38.152 19.3303C38.4563 19.2146 38.7738 19.0657 39.0648 18.9268C39.3612 18.7823 39.6504 18.6234 39.9313 18.4506C40.2058 18.2621 40.4803 18.0736 40.7415 17.8718C41.0007 17.6702 41.247 17.4526 41.479 17.2203C41.7238 17.0021 41.942 16.7573 42.1603 16.5126C42.3786 16.2679 42.5803 15.9934 42.7688 15.7321C42.8019 15.6891 42.8284 15.6329 42.8548 15.5866L43.2748 14.9252C43.4336 14.6375 43.5791 14.3464 43.7047 14.0422C43.8304 13.7379 43.9495 13.4336 44.052 13.1162C44.1545 12.7987 44.224 12.4944 44.2967 12.1769C44.3695 11.8594 44.4125 11.5254 44.4422 11.2079C44.472 10.8904 44.4985 10.5465 44.4985 10.2257C44.4985 9.99421 44.4852 9.76271 44.4654 9.56428C44.4323 9.23357 44.3926 8.91277 44.3496 8.59529C44.2921 8.26905 44.2193 7.9457 44.1314 7.62629C44.0322 7.32203 43.9329 7.00455 43.8139 6.70029C43.6948 6.39603 43.5493 6.09177 43.4104 5.80736C43.2715 5.52294 43.0929 5.22861 42.9143 4.95411C42.7358 4.67962 42.5373 4.41835 42.3356 4.1604L41.6742 3.4229C41.552 3.29914 41.4263 3.17893 41.2971 3.06242C40.6491 2.55876 39.9782 2.08533 39.2864 1.64365C39.1872 1.58743 39.0979 1.54444 38.9987 1.49814C38.5224 1.19388 38.0727 1.03514 37.6262 0.889624L37.5766 0.840017Z" fill="#EA2845"/>
</svg>
