<svg width="500" viewBox="0 0 58 64" fill="none" xmlns="http://www.w3.org/2000/svg">
<path d="M26.3201 0.681001C27.9201 -0.224999 29.9601 -0.228999 31.5201 0.681001L55.4081 14.147C56.9021 14.987 57.9021 16.653 57.8881 18.375V45.375C57.8981 47.169 56.8001 48.871 55.2241 49.695L31.4641 63.099C30.6514 63.5481 29.7333 63.7714 28.8052 63.7457C27.877 63.7201 26.9727 63.4463 26.1861 62.953L19.0561 58.833C18.5701 58.543 18.0241 58.313 17.6801 57.843C17.9841 57.435 18.5241 57.383 18.9641 57.203C19.9561 56.887 20.8641 56.403 21.7761 55.891C22.0061 55.731 22.2881 55.791 22.5081 55.935L28.5881 59.451C29.0221 59.701 29.4621 59.371 29.8341 59.161L53.1641 45.995C53.4521 45.855 53.6121 45.551 53.5881 45.235V18.495C53.6201 18.135 53.4141 17.807 53.0881 17.661L29.3881 4.315C29.2515 4.22054 29.0894 4.16976 28.9234 4.16941C28.7573 4.16905 28.5951 4.21912 28.4581 4.313L4.79207 17.687C4.47207 17.833 4.25207 18.157 4.29207 18.517V45.257C4.26407 45.573 4.43207 45.871 4.72207 46.007L11.0461 49.577C12.2341 50.217 13.6921 50.577 15.0001 50.107C15.5725 49.8913 16.0652 49.5058 16.4123 49.0021C16.7594 48.4984 16.9443 47.9007 16.9421 47.289L16.9481 20.709C16.9201 20.315 17.2921 19.989 17.6741 20.029H20.7141C21.1141 20.019 21.4281 20.443 21.3741 20.839L21.3681 47.587C21.3701 49.963 20.3941 52.547 18.1961 53.713C15.4881 55.113 12.1401 54.819 9.46407 53.473L2.66407 49.713C1.06407 48.913 -0.00993076 47.185 6.9243e-05 45.393V18.393C0.0067219 17.5155 0.247969 16.6557 0.698803 15.9027C1.14964 15.1498 1.79365 14.5312 2.56407 14.111L26.3201 0.681001ZM33.2081 19.397C36.6621 19.197 40.3601 19.265 43.4681 20.967C45.8741 22.271 47.2081 25.007 47.2521 27.683C47.1841 28.043 46.8081 28.243 46.4641 28.217C45.4641 28.215 44.4601 28.231 43.4561 28.211C43.0301 28.227 42.7841 27.835 42.7301 27.459C42.4421 26.179 41.7441 24.913 40.5401 24.295C38.6921 23.369 36.5481 23.415 34.5321 23.435C33.0601 23.515 31.4781 23.641 30.2321 24.505C29.2721 25.161 28.9841 26.505 29.3261 27.549C29.6461 28.315 30.5321 28.561 31.2541 28.789C35.4181 29.877 39.8281 29.789 43.9141 31.203C45.6041 31.787 47.2581 32.923 47.8381 34.693C48.5941 37.065 48.2641 39.901 46.5781 41.805C45.2101 43.373 43.2181 44.205 41.2281 44.689C38.5821 45.279 35.8381 45.293 33.1521 45.029C30.6261 44.741 27.9981 44.077 26.0481 42.357C24.3801 40.909 23.5681 38.653 23.6481 36.477C23.6681 36.109 24.0341 35.853 24.3881 35.883H27.3881C27.7921 35.855 28.0881 36.203 28.1081 36.583C28.2941 37.783 28.7521 39.083 29.8161 39.783C31.8681 41.107 34.4421 41.015 36.7901 41.053C38.7361 40.967 40.9201 40.941 42.5101 39.653C43.3501 38.919 43.5961 37.693 43.3701 36.637C43.1241 35.745 42.1701 35.331 41.3701 35.037C37.2601 33.737 32.8001 34.209 28.7301 32.737C27.0781 32.153 25.4801 31.049 24.8461 29.351C23.9601 26.951 24.3661 23.977 26.2321 22.137C28.0321 20.307 30.6721 19.601 33.1721 19.349L33.2081 19.397Z" fill="#8CC84B"/>
</svg>
