<svg width="500" viewBox="0 0 57 51" fill="none" xmlns="http://www.w3.org/2000/svg">
<path d="M56.25 25.0522C56.25 21.3259 51.5834 17.7947 44.4291 15.6047C46.08 8.3125 45.3463 2.51097 42.1131 0.653532C41.3678 0.217845 40.4963 0.0114679 39.5447 0.0114679V2.56828C40.0722 2.56828 40.4962 2.67147 40.8519 2.86638C42.4109 3.76069 43.0875 7.16594 42.56 11.5459C42.4341 12.6234 42.2275 13.7588 41.9753 14.9166C39.7281 14.3663 37.2744 13.9422 34.6947 13.6669C33.1469 11.5459 31.5419 9.61969 29.925 7.93406C33.6628 4.46009 37.1713 2.55681 39.5563 2.55681V0C36.4031 0 32.2756 2.24725 28.1022 6.14553C23.9287 2.27019 19.8009 0.0458747 16.6481 0.0458747V2.60269C19.0213 2.60269 22.5412 4.4945 26.2791 7.94562C24.6737 9.63094 23.0688 11.5459 21.5438 13.6669C18.9525 13.9422 16.4991 14.3663 14.2516 14.9281C13.9881 13.7816 13.7931 12.6694 13.6556 11.6031C13.1166 7.22344 13.7816 3.81803 15.3294 2.91225C15.6734 2.70588 16.1206 2.61416 16.6481 2.61416V0.0573128C15.685 0.0573128 14.8134 0.263719 14.0569 0.699407C10.835 2.55681 10.1125 8.34687 11.775 15.6159C4.64356 17.8175 0 21.3375 0 25.0522C0 28.7784 4.66647 32.31 11.8209 34.5C10.17 41.7919 10.9037 47.5934 14.1369 49.4509C14.8822 49.8866 15.7537 50.0931 16.7169 50.0931C19.8697 50.0931 23.9975 47.8456 28.1709 43.9475C32.3444 47.8228 36.4719 50.0472 39.625 50.0472C40.5881 50.0472 41.4594 49.8406 42.2162 49.405C45.4381 47.5475 46.1603 41.7575 44.4978 34.4884C51.6066 32.2984 56.25 28.7672 56.25 25.0522ZM41.3219 17.4047C40.8975 18.8837 40.3703 20.4087 39.7741 21.9337C39.3041 21.0162 38.8109 20.0991 38.2719 19.1819C37.7447 18.2647 37.1828 17.3703 36.6209 16.4991C38.2491 16.7397 39.82 17.0378 41.3219 17.4047ZM36.0706 29.6156C35.1763 31.1634 34.2591 32.6309 33.3075 33.9953C31.5991 34.1444 29.8678 34.2247 28.125 34.2247C26.3937 34.2247 24.6625 34.1444 22.9656 34.0069C22.0137 32.6425 21.085 31.1863 20.1909 29.65C19.3194 28.1478 18.5284 26.6231 17.8059 25.0866C18.5169 23.5503 19.3194 22.0137 20.1794 20.5119C21.0738 18.9641 21.9909 17.4966 22.9425 16.1319C24.6509 15.9831 26.3822 15.9028 28.125 15.9028C29.8563 15.9028 31.5875 15.9831 33.2844 16.1206C34.2362 17.485 35.165 18.9409 36.0591 20.4775C36.9306 21.9794 37.7216 23.5044 38.4441 25.0406C37.7216 26.5772 36.9306 28.1134 36.0706 29.6156ZM39.7741 28.125C40.3931 29.6613 40.9206 31.1978 41.3562 32.6884C39.8544 33.0553 38.2719 33.3647 36.6325 33.6056C37.1944 32.7228 37.7559 31.8169 38.2834 30.8881C38.8109 29.9709 39.3041 29.0422 39.7741 28.125ZM28.1478 40.3588C27.0816 39.2581 26.0153 38.0312 24.9606 36.6897C25.9925 36.7356 27.0472 36.77 28.1134 36.77C29.1912 36.77 30.2575 36.7472 31.3009 36.6897C30.2691 38.0312 29.2028 39.2581 28.1478 40.3588ZM19.6175 33.6056C17.9894 33.3647 16.4188 33.0666 14.9166 32.6997C15.3409 31.2206 15.8684 29.6956 16.4647 28.1709C16.9347 29.0881 17.4275 30.0053 17.9666 30.9225C18.5053 31.8397 19.0556 32.7341 19.6175 33.6056ZM28.0906 9.74562C29.1569 10.8466 30.2231 12.0731 31.2781 13.4147C30.2463 13.3687 29.1912 13.3344 28.125 13.3344C27.0472 13.3344 25.9809 13.3575 24.9375 13.4147C25.9694 12.0731 27.0356 10.8466 28.0906 9.74562ZM19.6063 16.4991C19.0444 17.3819 18.4825 18.2875 17.955 19.2163C17.4275 20.1334 16.9347 21.0506 16.4647 21.9681C15.8453 20.4316 15.3181 18.8953 14.8822 17.4047C16.3844 17.0494 17.9666 16.7397 19.6063 16.4991ZM9.22978 30.8537C5.17097 29.1225 2.54534 26.8522 2.54534 25.0522C2.54534 23.2522 5.17097 20.9706 9.22978 19.2506C10.2159 18.8266 11.2934 18.4481 12.4056 18.0925C13.0594 20.34 13.9191 22.6787 14.9856 25.0753C13.9306 27.46 13.0822 29.7875 12.44 32.0234C11.305 31.6678 10.2272 31.2781 9.22978 30.8537ZM15.3981 47.2381C13.8391 46.3437 13.1625 42.9384 13.69 38.5588C13.8159 37.4809 14.0225 36.3459 14.2747 35.1878C16.5219 35.7381 18.9756 36.1625 21.5553 36.4375C23.1031 38.5587 24.7081 40.485 26.325 42.1703C22.5872 45.6444 19.0787 47.5475 16.6938 47.5475C16.1778 47.5363 15.7422 47.4331 15.3981 47.2381ZM42.5944 38.5013C43.1334 42.8813 42.4684 46.2866 40.9206 47.1922C40.5766 47.3984 40.1294 47.4903 39.6019 47.4903C37.2287 47.4903 33.7088 45.5984 29.9709 42.1475C31.5763 40.4619 33.1813 38.5472 34.7063 36.4259C37.2975 36.1509 39.7509 35.7266 41.9984 35.165C42.2619 36.3228 42.4684 37.435 42.5944 38.5013ZM47.0088 30.8537C46.0228 31.2781 44.945 31.6562 43.8328 32.0119C43.1794 29.7647 42.3194 27.4256 41.2531 25.0294C42.3078 22.6444 43.1562 20.3169 43.7984 18.0813C44.9334 18.4366 46.0112 18.8266 47.0203 19.2506C51.0791 20.9819 53.7047 23.2522 53.7047 25.0522C53.6931 26.8522 51.0675 29.1341 47.0088 30.8537Z" fill="#61DAFB"/>
<path d="M28.1128 30.2921C31.0066 30.2921 33.3525 27.9462 33.3525 25.0524C33.3525 22.1587 31.0066 19.8127 28.1128 19.8127C25.2187 19.8127 22.8728 22.1587 22.8728 25.0524C22.8728 27.9462 25.2187 30.2921 28.1128 30.2921Z" fill="#61DAFB"/>
</svg>
