<svg width="500" viewBox="0 0 57 51" fill="none" xmlns="http://www.w3.org/2000/svg">
<path d="M12.2728 1.67591L28.125 0L43.9772 1.67591L56.25 18.1509L28.125 50.9022L0 18.1509L12.2728 1.67591Z" fill="#FDB300"/>
<path d="M11.3919 18.1509L28.125 50.9021L0 18.1509H11.3919Z" fill="#EA6C00"/>
<path d="M44.8581 18.1509L28.125 50.9021L56.25 18.1509H44.8581Z" fill="#EA6C00"/>
<path d="M11.3921 18.1509H44.858L28.1252 50.9021L11.3921 18.1509Z" fill="#FDAD00"/>
<path d="M28.1252 0L12.2727 1.67587L11.3921 18.1509L28.1252 0Z" fill="#FDD231"/>
<path d="M28.1279 0L43.9804 1.67587L44.8611 18.1509L28.1279 0Z" fill="#FDD231"/>
<path d="M56.2501 18.1513L43.9773 1.67627L44.8582 18.1513H56.2501Z" fill="#FDAD00"/>
<path d="M0 18.1513L12.2728 1.67627L11.3919 18.1513H0Z" fill="#FDAD00"/>
<path d="M28.1252 0L11.3921 18.1509H44.858L28.1252 0Z" fill="#FEEEB7"/>
</svg>
