<svg width="500" viewBox="0 0 58 64" fill="none" xmlns="http://www.w3.org/2000/svg">
<path d="M55.932 49.326L29.992 64V52.574L46.152 43.682L55.932 49.326ZM57.708 47.72V17.04L48.22 22.524V42.248L57.708 47.72ZM1.776 49.326L27.712 64V52.574L11.542 43.68L1.776 49.326ZM0 47.72V17.04L9.488 22.524V42.248L0 47.72ZM1.112 15.048L27.712 0V11.044L10.532 20.5L1.112 15.048ZM56.592 15.048L29.992 0V11.044L47.172 20.49L56.592 15.048Z" fill="#8ED6FB"/>
<path d="M27.7122 50.4739L11.7642 41.6999V24.3319L27.7122 33.5399V50.4739ZM29.9922 50.4739L45.9422 41.7079V24.3279L29.9922 33.5399V50.4739ZM12.8442 22.3239L28.8522 13.5259L44.8602 22.3259L28.8522 31.5659L12.8442 22.3239Z" fill="#1C78C0"/>
</svg>
